{
	"asset":{
		"generator":"Khronos glTF Blender I/O v3.6.27",
		"version":"2.0"
	},
	"scene":0,
	"scenes":[
		{
			"name":"Scene",
			"nodes":[
				0
			]
		}
	],
	"nodes":[
		{
			"mesh":0,
			"name":"Spot"
		}
	],
	"materials":[
		{
			"doubleSided":true,
			"name":"Material",
			"pbrMetallicRoughness":{
				"baseColorTexture":{
					"index":0
				},
				"metallicFactor":0
			}
		}
	],
	"meshes":[
		{
			"name":"Spot",
			"primitives":[
				{
					"attributes":{
						"POSITION":0,
						"NORMAL":1,
						"TEXCOORD_0":2
					},
					"indices":3,
					"material":0
				}
			]
		}
	],
	"textures":[
		{
			"sampler":0,
			"source":0
		}
	],
	"images":[
		{
			"mimeType":"image/png",
			"name":"keenan-spot",
			"uri":"keenan-spot.png"
		}
	],
	"accessors":[
		{
			"bufferView":0,
			"componentType":5126,
			"count":3237,
			"max":[
				0.47155213356018066,
				1.0440419912338257,
				0.7526783347129822
			],
			"min":[
				-0.4715520143508911,
				-0.6463940143585205,
				-0.9652307629585266
			],
			"type":"VEC3"
		},
		{
			"bufferView":1,
			"componentType":5126,
			"count":3237,
			"type":"VEC3"
		},
		{
			"bufferView":2,
			"componentType":5126,
			"count":3237,
			"type":"VEC2"
		},
		{
			"bufferView":3,
			"componentType":5123,
			"count":17568,
			"type":"SCALAR"
		}
	],
	"bufferViews":[
		{
			"buffer":0,
			"byteLength":38844,
			"byteOffset":0,
			"target":34962
		},
		{
			"buffer":0,
			"byteLength":38844,
			"byteOffset":38844,
			"target":34962
		},
		{
			"buffer":0,
			"byteLength":25896,
			"byteOffset":77688,
			"target":34962
		},
		{
			"buffer":0,
			"byteLength":35136,
			"byteOffset":103584,
			"target":34963
		}
	],
	"samplers":[
		{
			"magFilter":9729,
			"minFilter":9987
		}
	],
	"buffers":[
		{
			"byteLength":138720,
			"uri":"model.bin"
		}
	]
}
